# xmcd
#
# Track frame offsets: 
#        150
#        32810
#        60558
#        88306
#        97501
#        106696
#        133019
#        147211
#        151059
#
# Disc length: 2316 seconds
#
# Revision: 0
# Processed by: cddbd v1.5.2PL0 Copyright (c) Steve Scherf et al.
# Submitted via: ExactAudioCopy v1.0b1
#
DISCID=67090a09
DTITLE=Albert King - Rainin' In California
DYEAR=1983
DGENRE=Modern Electric Blues
TTITLE0=King's Groove
TTITLE1=I Wonder Why
TTITLE2=The Sky Is Crying
TTITLE3=Albert's Stomp
TTITLE4=I'll Play The Blues For You
TTITLE5=Cold Women With Warm Hearts
TTITLE6=Kansas City
TTITLE7=Tighten Up
TTITLE8=Rainin' In California
EXTD=
EXTT0=
EXTT1=
EXTT2=
EXTT3=
EXTT4=
EXTT5=
EXTT6=
EXTT7=
EXTT8=
PLAYORDER=
